<svg id="Logo" xmlns="http://www.w3.org/2000/svg" width="279.389" height="45.063" viewBox="0 0 279.389 45.063">
  <g id="Group_2734" data-name="Group 2734" transform="translate(0 2.764)">
    <path id="Path_102" data-name="Path 102" d="M181.245,277.093s-4.877,2.061-4.542,2.008-1.364,12.02,24.456,5.374,34.164-5.473,43.005-2.692,12.79-2.288,8.412-5.935S181.245,277.093,181.245,277.093Z" transform="translate(-162.52 -244.548)" fill="#ededed"/>
    <g id="Group_2733" data-name="Group 2733">
      <path id="Path_103" data-name="Path 103" d="M166.242,246.91s-1.5-13.876,22.78-6.245,48.8,18.675,63.716,4.626l-3.469,17.576s-70.846-14.529-78.108-1.7Z" transform="translate(-157.417 -226.931)" fill="#006e55"/>
      <path id="Path_104" data-name="Path 104" d="M160.281,233.7a6.136,6.136,0,0,1,2.2-6.224c3.551-2.894,8.5-5.623,36.35,4.913s41.007,6.736,46.676-1.465a14.79,14.79,0,0,0,1.523-3.006,27.793,27.793,0,0,0,.444-3.7s-8.634,17.114-47.026,2-45.021-8.942-45.021-8.942Z" transform="translate(-152.15 -216.038)" fill="#006e55"/>
      <path id="Path_105" data-name="Path 105" d="M239.277,223.285s53.836-16.565,48.749.395C288.026,223.68,280.368,214.188,239.277,223.285Z" transform="translate(-193.044 -216.038)" fill="#00593b"/>
      <path id="Path_106" data-name="Path 106" d="M149.034,280.51s25.58-22.236,98.594,0C247.628,280.51,184.613,270.7,149.034,280.51Z" transform="translate(-149.034 -242.661)" fill="#00593b"/>
    </g>
  </g>
  <g id="Group_2738" data-name="Group 2738" transform="translate(114.262)">
    <g id="Group_2736" data-name="Group 2736" transform="translate(1.143)">
      <g id="Group_2735" data-name="Group 2735">
        <path id="Path_107" data-name="Path 107" d="M374.3,211.239h3.331l5.415,8.415,5.415-8.415h3.33v17.8h-3.127V216.272l-5.618,8.389h-.1l-5.567-8.338v12.71H374.3Z" transform="translate(-374.298 -210.934)" fill="#00593b"/>
        <path id="Path_108" data-name="Path 108" d="M420.869,222.018,413.8,211.239h3.711l4.958,7.855,5.033-7.855h3.584l-7.067,10.7v7.092h-3.153Z" transform="translate(-393.564 -210.934)" fill="#00593b"/>
        <path id="Path_109" data-name="Path 109" d="M467.794,211.239h13.245v2.847H470.921v4.856H479.9v2.847h-8.974v7.245h-3.127Z" transform="translate(-419.895 -210.934)" fill="#00593b"/>
        <path id="Path_110" data-name="Path 110" d="M501.232,210.991h2.9l7.83,17.922h-3.3l-1.8-4.3h-8.415l-1.83,4.3h-3.2Zm4.474,10.855-3.076-7.118-3.051,7.118Z" transform="translate(-432.384 -210.813)" fill="#00593b"/>
        <path id="Path_111" data-name="Path 111" d="M531.864,219.9v-.051a9,9,0,0,1,9.151-9.2,9.3,9.3,0,0,1,6.992,2.771L546,215.728a7.114,7.114,0,0,0-5.008-2.187,5.962,5.962,0,0,0-5.847,6.254v.051a6,6,0,0,0,5.872,6.3,6.952,6.952,0,0,0,5.11-2.288l2.008,2.034a9.182,9.182,0,0,1-7.22,3.152A8.935,8.935,0,0,1,531.864,219.9Z" transform="translate(-451.141 -210.644)" fill="#00593b"/>
        <path id="Path_112" data-name="Path 112" d="M570.423,211.239h3.127v17.8h-3.127Z" transform="translate(-469.946 -210.934)" fill="#00593b"/>
        <path id="Path_113" data-name="Path 113" d="M585.806,211.239h3.127v14.948h9.355v2.847H585.806Z" transform="translate(-477.448 -210.934)" fill="#00593b"/>
        <path id="Path_114" data-name="Path 114" d="M616.823,211.239h3.127v17.8h-3.127Z" transform="translate(-492.575 -210.934)" fill="#00593b"/>
        <path id="Path_115" data-name="Path 115" d="M635.294,214.137h-5.669v-2.9H644.09v2.9h-5.669v14.9h-3.127Z" transform="translate(-498.818 -210.934)" fill="#00593b"/>
        <path id="Path_116" data-name="Path 116" d="M667.709,222.018l-7.067-10.779h3.711l4.958,7.855,5.033-7.855h3.584l-7.067,10.7v7.092h-3.152Z" transform="translate(-513.945 -210.934)" fill="#00593b"/>
      </g>
    </g>
    <g id="Group_2737" data-name="Group 2737" transform="translate(0 26.657)">
      <path id="Path_117" data-name="Path 117" d="M378.065,265.128h-6v-1.856h14.007v1.856h-6v15.939h-2.008Z" transform="translate(-372.066 -262.967)" fill="#f4a701"/>
      <path id="Path_118" data-name="Path 118" d="M418.863,263.272h7.652a7.017,7.017,0,0,1,5.059,1.78,4.915,4.915,0,0,1,1.373,3.508v.051c0,2.949-2.034,4.677-4.831,5.186l5.466,7.271h-2.466l-5.16-6.915h-5.084v6.915h-2.009Zm7.474,9.076c2.67,0,4.576-1.372,4.576-3.66v-.051c0-2.186-1.678-3.508-4.551-3.508h-5.49v7.22Z" transform="translate(-394.888 -262.967)" fill="#f4a701"/>
      <path id="Path_119" data-name="Path 119" d="M472.183,263.024h1.881l8.109,17.922h-2.161l-2.084-4.7h-9.686l-2.11,4.7h-2.059Zm4.957,11.414-4.042-9.076-4.067,9.076Z" transform="translate(-416.937 -262.846)" fill="#f4a701"/>
      <path id="Path_120" data-name="Path 120" d="M514.99,271.93v-.051a8.965,8.965,0,0,1,9-9.2,9.262,9.262,0,0,1,6.94,2.822l-1.373,1.474a7.734,7.734,0,0,0-5.593-2.441,6.977,6.977,0,0,0-6.889,7.3v.051a7.022,7.022,0,0,0,6.889,7.347,7.725,7.725,0,0,0,5.746-2.567l1.322,1.3a9.267,9.267,0,0,1-7.118,3.127A8.876,8.876,0,0,1,514.99,271.93Z" transform="translate(-441.768 -262.677)" fill="#f4a701"/>
      <path id="Path_121" data-name="Path 121" d="M565.658,263.272h2.009V273.9l10.219-10.626H580.5l-7.652,7.779,7.957,10.016h-2.517l-6.838-8.618-3.787,3.838v4.779h-2.009Z" transform="translate(-466.479 -262.967)" fill="#f4a701"/>
      <path id="Path_122" data-name="Path 122" d="M613.647,263.272h12.864v1.83H615.656v6.076h9.711v1.83h-9.711v6.229h10.982v1.83H613.647Z" transform="translate(-489.882 -262.967)" fill="#f4a701"/>
      <path id="Path_123" data-name="Path 123" d="M659.205,263.272h7.652a7.017,7.017,0,0,1,5.059,1.78,4.915,4.915,0,0,1,1.373,3.508v.051c0,2.949-2.034,4.677-4.831,5.186l5.466,7.271h-2.466l-5.161-6.915h-5.084v6.915h-2.008Zm7.474,9.076c2.67,0,4.576-1.372,4.576-3.66v-.051c0-2.186-1.678-3.508-4.551-3.508h-5.491v7.22Z" transform="translate(-512.1 -262.967)" fill="#f4a701"/>
    </g>
  </g>
</svg>
