<svg xmlns="http://www.w3.org/2000/svg" width="42" height="42" viewBox="0 0 42 42">
  <g id="Call" transform="translate(-1600 -19)">
    <g id="Ellipse_52" data-name="Ellipse 52" transform="translate(1600 19)" fill="#fff" stroke="#00a983" stroke-width="2">
      <circle cx="21" cy="21" r="21" stroke="none"/>
      <circle cx="21" cy="21" r="20" fill="none"/>
    </g>
    <g id="message-3-fill" transform="translate(1609 28)">
      <path id="Path_1963" data-name="Path 1963" d="M0,0H24V24H0Z" fill="none"/>
      <path id="Icon_awesome-headset" data-name="Icon awesome-headset" d="M6.75,7.313A1.125,1.125,0,0,0,5.625,6.188H5.063a2.25,2.25,0,0,0-2.25,2.25v1.688a2.25,2.25,0,0,0,2.25,2.25h.563A1.125,1.125,0,0,0,6.75,11.25Zm6.188,5.063a2.25,2.25,0,0,0,2.25-2.25V8.438a2.25,2.25,0,0,0-2.25-2.25h-.562A1.125,1.125,0,0,0,11.25,7.313V11.25a1.125,1.125,0,0,0,1.125,1.125ZM9,0A9.171,9.171,0,0,0,0,9v.563a.562.562,0,0,0,.563.563h.563a.562.562,0,0,0,.563-.562V9A7.313,7.313,0,0,1,16.313,9h0c0,.085,0,5.826,0,5.826a1.486,1.486,0,0,1-1.486,1.486H11.25a1.687,1.687,0,0,0-1.687-1.687H8.438a1.688,1.688,0,0,0,0,3.375h6.389A3.174,3.174,0,0,0,18,14.826V9A9.171,9.171,0,0,0,9,0Z" transform="translate(3 3)" fill="#00a983"/>
    </g>
  </g>
</svg>
