<svg id="Manage_Notes_and_Field_Matters" data-name="Manage Notes and Field Matters" xmlns="http://www.w3.org/2000/svg" width="52" height="52" viewBox="0 0 52 52">
  <rect id="Rectangle_2437" data-name="Rectangle 2437" width="52" height="52" rx="10" fill="rgba(0,110,85,0.1)" opacity="0"/>
  <g id="file-edit-fill" transform="translate(14 14)">
    <path id="Path_1991" data-name="Path 1991" d="M0,0H24V24H0Z" fill="none"/>
    <path id="Path_1992" data-name="Path 1992" d="M21,15.243v5.765a.993.993,0,0,1-.993.992H3.993A1,1,0,0,1,3,20.993V9H9a1,1,0,0,0,1-1V2H20a1,1,0,0,1,1,.992V6.757l-9,9-.006,4.238L16.241,20Zm.778-6.435,1.414,1.414L15.414,18,14,18l0-1.412,7.778-7.778ZM3,7,8,2V7Z" fill="#006e55"/>
  </g>
</svg>
