<svg id="Record_maintenace_activity" data-name="Record maintenace activity" xmlns="http://www.w3.org/2000/svg" width="52" height="52" viewBox="0 0 52 52">
  <rect id="Rectangle_2437" data-name="Rectangle 2437" width="52" height="52" rx="10" fill="rgba(0,110,85,0.1)" opacity="0"/>
  <g id="file-settings-fill" transform="translate(14 14)">
    <path id="Path_1983" data-name="Path 1983" d="M0,0H24V24H0Z" fill="none"/>
    <path id="Path_1984" data-name="Path 1984" d="M16,2l5,5V21.008a.993.993,0,0,1-.993.992H3.993A1,1,0,0,1,3,21.008V2.992A.993.993,0,0,1,3.993,2ZM8.6,12.812l-.992.572,1,1.732.992-.573a3.492,3.492,0,0,0,1.4.812V16.5h2V15.355a3.5,3.5,0,0,0,1.4-.812l.992.573,1-1.732-.992-.573a3.51,3.51,0,0,0,0-1.622l.992-.573-1-1.732-.992.573A3.5,3.5,0,0,0,13,8.645V7.5H11V8.645a3.5,3.5,0,0,0-1.4.812L8.6,8.884l-1,1.732.992.573a3.51,3.51,0,0,0,0,1.623ZM12,13.5A1.5,1.5,0,1,1,13.5,12,1.5,1.5,0,0,1,12,13.5Z" fill="#006e55"/>
  </g>
</svg>
