<svg id="Requests" xmlns="http://www.w3.org/2000/svg" width="52" height="52" viewBox="0 0 52 52">
  <rect id="Rectangle_2437" data-name="Rectangle 2437" width="52" height="52" rx="10" fill="rgba(0,110,85,0.1)" opacity="0"/>
  <g id="mail-send-fill" transform="translate(14 14)">
    <path id="Path_2049" data-name="Path 2049" d="M0,0H24V24H0Z" fill="none"/>
    <path id="Path_2050" data-name="Path 2050" d="M2,5.5V3.993A1,1,0,0,1,2.992,3H21.008A.993.993,0,0,1,22,3.993V20.007a1,1,0,0,1-.992.993H2.992A.993.993,0,0,1,2,20.007V19H20V7.3l-8,7.2ZM0,10H5v2H0Zm0,5H8v2H0Z" fill="#006e55"/>
  </g>
</svg>
