<svg id="Request_maintenance_Visit" data-name="Request maintenance Visit" xmlns="http://www.w3.org/2000/svg" width="52" height="52" viewBox="0 0 52 52">
  <rect id="Rectangle_2437" data-name="Rectangle 2437" width="52" height="52" rx="10" fill="rgba(0,110,85,0.1)" opacity="0"/>
  <g id="user-settings-fill" transform="translate(14 14)">
    <path id="Path_1987" data-name="Path 1987" d="M0,0H24V24H0Z" fill="none"/>
    <path id="Path_1988" data-name="Path 1988" d="M12,14v8H4a8,8,0,0,1,8-8Zm0-1a6,6,0,1,1,6-6A6,6,0,0,1,12,13Zm2.6,5.812a3.51,3.51,0,0,1,0-1.623l-.992-.573,1-1.732.992.573A3.5,3.5,0,0,1,17,14.645V13.5h2v1.145a3.492,3.492,0,0,1,1.405.812l.992-.573,1,1.732-.992.573a3.51,3.51,0,0,1,0,1.622l.992.573-1,1.732-.992-.573a3.5,3.5,0,0,1-1.4.812V22.5H17V21.355a3.5,3.5,0,0,1-1.4-.812l-.992.573-1-1.732.992-.572ZM18,17a1,1,0,1,0,1,1A1,1,0,0,0,18,17Z" fill="#006e55"/>
  </g>
</svg>
