<svg id="Users" xmlns="http://www.w3.org/2000/svg" width="52" height="52" viewBox="0 0 52 52">
  <rect id="Rectangle_2437" data-name="Rectangle 2437" width="52" height="52" rx="10" fill="rgba(0,110,85,0.1)" opacity="0"/>
  <g id="group-fill" transform="translate(14 14)">
    <path id="Path_1993" data-name="Path 1993" d="M0,0H24V24H0Z" fill="none"/>
    <path id="Path_1994" data-name="Path 1994" d="M2,22a8,8,0,0,1,16,0Zm8-9a6,6,0,1,1,6-6A6,6,0,0,1,10,13Zm7.363,2.233A7.5,7.5,0,0,1,22.983,22H20A9.967,9.967,0,0,0,17.363,15.233ZM15.34,12.957A8,8,0,0,0,16.985,3.1a5,5,0,0,1-1.645,9.86Z" fill="#006e55"/>
  </g>
</svg>
