<svg id="View_V2" data-name="View V2" xmlns="http://www.w3.org/2000/svg" width="50" height="50" viewBox="0 0 50 50">
  <rect id="Rectangle_8" data-name="Rectangle 8" width="50" height="50" rx="25" fill="#006e55"/>
  <g id="eye-fill" transform="translate(13 13)">
    <path id="Path_2009" data-name="Path 2009" d="M0,0H24V24H0Z" fill="none"/>
    <path id="Path_2010" data-name="Path 2010" d="M1.181,12a11,11,0,0,1,21.638,0A11,11,0,0,1,1.181,12ZM12,17a5,5,0,1,0-5-5A5,5,0,0,0,12,17Zm0-2a3,3,0,1,1,3-3A3,3,0,0,1,12,15Z" fill="#fff"/>
  </g>
</svg>
