<svg id="View_maintenance_report" data-name="View maintenance report" xmlns="http://www.w3.org/2000/svg" width="52" height="52" viewBox="0 0 52 52">
  <rect id="Rectangle_2437" data-name="Rectangle 2437" width="52" height="52" rx="10" fill="rgba(0,110,85,0.1)" opacity="0"/>
  <g id="file-list-3-fill" transform="translate(14 14)">
    <path id="Path_2045" data-name="Path 2045" d="M0,0H24V24H0Z" fill="none"/>
    <path id="Path_2046" data-name="Path 2046" d="M19,22H5a3,3,0,0,1-3-3V3A1,1,0,0,1,3,2H17a1,1,0,0,1,1,1V15h4v4A3,3,0,0,1,19,22Zm-1-5v2a1,1,0,0,0,2,0V17ZM6,7V9h8V7Zm0,4v2h8V11Zm0,4v2h5V15Z" fill="#006e55"/>
  </g>
</svg>
